<mxfile host="Electron" agent="Mozilla/5.0 (X11; Linux x86_64) AppleWebKit/537.36 (KHTML, like Gecko) draw.io/26.0.4 Chrome/128.0.6613.186 Electron/32.2.8 Safari/537.36" version="26.0.4">
  <diagram name="Page-1" id="ge5ZDxIEjZZwQ0r3RCaX">
    <mxGraphModel dx="736" dy="379" grid="1" gridSize="10" guides="1" tooltips="1" connect="1" arrows="1" fold="1" page="1" pageScale="1" pageWidth="827" pageHeight="1169" math="0" shadow="0">
      <root>
        <mxCell id="0" />
        <mxCell id="1" parent="0" />
        <mxCell id="ogZTv579V8ygtkZ3LNf_-10" style="edgeStyle=orthogonalEdgeStyle;rounded=0;orthogonalLoop=1;jettySize=auto;html=1;entryX=0.5;entryY=0;entryDx=0;entryDy=0;exitX=0.5;exitY=1;exitDx=0;exitDy=0;" edge="1" parent="1" source="ogZTv579V8ygtkZ3LNf_-1" target="ogZTv579V8ygtkZ3LNf_-2">
          <mxGeometry relative="1" as="geometry" />
        </mxCell>
        <mxCell id="ogZTv579V8ygtkZ3LNf_-11" style="edgeStyle=orthogonalEdgeStyle;rounded=0;orthogonalLoop=1;jettySize=auto;html=1;entryX=0.5;entryY=0;entryDx=0;entryDy=0;" edge="1" parent="1" source="ogZTv579V8ygtkZ3LNf_-1" target="ogZTv579V8ygtkZ3LNf_-3">
          <mxGeometry relative="1" as="geometry" />
        </mxCell>
        <mxCell id="ogZTv579V8ygtkZ3LNf_-12" style="edgeStyle=orthogonalEdgeStyle;rounded=0;orthogonalLoop=1;jettySize=auto;html=1;entryX=0.5;entryY=0;entryDx=0;entryDy=0;exitX=0.5;exitY=1;exitDx=0;exitDy=0;" edge="1" parent="1" source="ogZTv579V8ygtkZ3LNf_-1" target="ogZTv579V8ygtkZ3LNf_-5">
          <mxGeometry relative="1" as="geometry" />
        </mxCell>
        <mxCell id="ogZTv579V8ygtkZ3LNf_-1" value="Main" style="rounded=0;whiteSpace=wrap;html=1;" vertex="1" parent="1">
          <mxGeometry x="440" y="390" width="120" height="60" as="geometry" />
        </mxCell>
        <mxCell id="ogZTv579V8ygtkZ3LNf_-2" value="readChange&lt;div&gt;(vector&amp;lt;Customer&amp;gt; *records)&lt;/div&gt;" style="rounded=0;whiteSpace=wrap;html=1;" vertex="1" parent="1">
          <mxGeometry x="280" y="525" width="120" height="60" as="geometry" />
        </mxCell>
        <mxCell id="ogZTv579V8ygtkZ3LNf_-13" style="edgeStyle=orthogonalEdgeStyle;rounded=0;orthogonalLoop=1;jettySize=auto;html=1;entryX=0.5;entryY=0;entryDx=0;entryDy=0;" edge="1" parent="1" source="ogZTv579V8ygtkZ3LNf_-3" target="ogZTv579V8ygtkZ3LNf_-4">
          <mxGeometry relative="1" as="geometry" />
        </mxCell>
        <mxCell id="ogZTv579V8ygtkZ3LNf_-3" value="calculateAllChange&lt;div&gt;(vector&amp;lt;Customer&amp;gt; *records)&lt;/div&gt;" style="rounded=0;whiteSpace=wrap;html=1;" vertex="1" parent="1">
          <mxGeometry x="440" y="525" width="120" height="60" as="geometry" />
        </mxCell>
        <mxCell id="ogZTv579V8ygtkZ3LNf_-4" value="calculateChange&lt;div&gt;(Customer *record)&lt;/div&gt;" style="rounded=0;whiteSpace=wrap;html=1;" vertex="1" parent="1">
          <mxGeometry x="440" y="630" width="120" height="60" as="geometry" />
        </mxCell>
        <mxCell id="ogZTv579V8ygtkZ3LNf_-14" style="edgeStyle=orthogonalEdgeStyle;rounded=0;orthogonalLoop=1;jettySize=auto;html=1;entryX=0.5;entryY=0;entryDx=0;entryDy=0;" edge="1" parent="1" source="ogZTv579V8ygtkZ3LNf_-5" target="ogZTv579V8ygtkZ3LNf_-6">
          <mxGeometry relative="1" as="geometry" />
        </mxCell>
        <mxCell id="ogZTv579V8ygtkZ3LNf_-16" style="edgeStyle=orthogonalEdgeStyle;rounded=0;orthogonalLoop=1;jettySize=auto;html=1;entryX=0.5;entryY=0;entryDx=0;entryDy=0;exitX=0.5;exitY=1;exitDx=0;exitDy=0;" edge="1" parent="1" source="ogZTv579V8ygtkZ3LNf_-5" target="ogZTv579V8ygtkZ3LNf_-8">
          <mxGeometry relative="1" as="geometry" />
        </mxCell>
        <mxCell id="ogZTv579V8ygtkZ3LNf_-5" value="menuPrompt&lt;div&gt;(vector&amp;lt;Customer&amp;gt;&lt;/div&gt;&lt;div&gt;*records)&lt;/div&gt;" style="rounded=0;whiteSpace=wrap;html=1;" vertex="1" parent="1">
          <mxGeometry x="600" y="525" width="120" height="60" as="geometry" />
        </mxCell>
        <mxCell id="ogZTv579V8ygtkZ3LNf_-15" style="edgeStyle=orthogonalEdgeStyle;rounded=0;orthogonalLoop=1;jettySize=auto;html=1;entryX=0.5;entryY=0;entryDx=0;entryDy=0;" edge="1" parent="1" source="ogZTv579V8ygtkZ3LNf_-6" target="ogZTv579V8ygtkZ3LNf_-7">
          <mxGeometry relative="1" as="geometry" />
        </mxCell>
        <mxCell id="ogZTv579V8ygtkZ3LNf_-6" value="findCustomer(const Customer *record)" style="rounded=0;whiteSpace=wrap;html=1;" vertex="1" parent="1">
          <mxGeometry x="600" y="630" width="120" height="60" as="geometry" />
        </mxCell>
        <mxCell id="ogZTv579V8ygtkZ3LNf_-7" value="printCustome&lt;span style=&quot;background-color: transparent; color: light-dark(rgb(0, 0, 0), rgb(255, 255, 255));&quot;&gt;r&lt;/span&gt;&lt;div&gt;&lt;span style=&quot;background-color: transparent; color: light-dark(rgb(0, 0, 0), rgb(255, 255, 255));&quot;&gt;(const vector&amp;lt;Customer&amp;gt; *records)&lt;/span&gt;&lt;/div&gt;" style="rounded=0;whiteSpace=wrap;html=1;" vertex="1" parent="1">
          <mxGeometry x="600" y="730" width="120" height="60" as="geometry" />
        </mxCell>
        <mxCell id="ogZTv579V8ygtkZ3LNf_-8" value="printChange&lt;div&gt;&lt;span style=&quot;background-color: transparent; color: light-dark(rgb(0, 0, 0), rgb(255, 255, 255));&quot;&gt;(const vector&amp;lt;Customer&amp;gt; *records)&lt;/span&gt;&lt;/div&gt;" style="rounded=0;whiteSpace=wrap;html=1;" vertex="1" parent="1">
          <mxGeometry x="770" y="630" width="120" height="60" as="geometry" />
        </mxCell>
      </root>
    </mxGraphModel>
  </diagram>
</mxfile>
